<svg width="161" height="189" viewBox="0 0 161 189" fill="none" xmlns="http://www.w3.org/2000/svg">
<path d="M44 40C44 35.4999 43.469 28.0001 33 28C21.5 27.9999 20 36.5 20 40V107.5C20 110.5 25 115.9 33 115.5C41 115.1 43.6667 110 44 107.5" stroke="#FF69B4" stroke-width="4" stroke-linecap="round" stroke-linejoin="round"/>
<circle cx="82" cy="13" r="12" stroke="#680064" stroke-width="2"/>
<rect x="103" width="39" height="138" rx="19.5" fill="#9D0A97" fill-opacity="0.6"/>
<path d="M80 43L64.5 62.5V85.5M64.5 85.5C62 89 55.5 93.9 49.5 85.5V56.5L69.5 33C72.5 29.8334 80.8 24.8 90 30C99.2 35.2 100.5 44.1667 100 48V65L116 84C116 86.6667 114.4 91.7 108 90.5L95 77.5V43V101M64.5 85.5V101M95 101H64.5M95 101L116 150.524M64.5 101V110L42.5429 139M42.5429 139L38 145L49.5 163L55.5 159L51.9368 153.5M42.5429 139L51.9368 153.5M51.9368 153.5L82 115.5L101.311 155M101.311 155L104 160.5L123 153.5L121 149L116 150.524M101.311 155L116 150.524M24 163H153.5" stroke="#680064" stroke-width="2" stroke-linejoin="round"/>
<path d="M132.905 40C132.905 35.4999 132.374 28.0001 121.905 28C110.405 27.9999 108.905 36 108.405 40C107.405 45.5 107.105 58.3 121.905 65.5C140.405 74.5 138.905 92 135.405 104C134.405 107 129.905 115.1 121.905 115.5C113.905 115.9 109.905 110.333 108.905 107.5" stroke="#680064" stroke-width="4" stroke-linecap="round" stroke-linejoin="round"/>
<circle cx="47" cy="17" r="10" fill="#E85F63"/>
<path d="M7 127H39.5" stroke="#E85F63" stroke-width="2" stroke-linecap="round" stroke-linejoin="round"/>
<path d="M8.36 184.24C7.28 184.24 6.27333 184.067 5.34 183.72C4.42 183.36 3.62 182.853 2.94 182.2C2.26 181.547 1.72667 180.78 1.34 179.9C0.966667 179.02 0.78 178.053 0.78 177C0.78 175.947 0.966667 174.98 1.34 174.1C1.72667 173.22 2.26 172.453 2.94 171.8C3.63333 171.147 4.44 170.647 5.36 170.3C6.28 169.94 7.28667 169.76 8.38 169.76C9.59333 169.76 10.6867 169.973 11.66 170.4C12.6467 170.813 13.4733 171.427 14.14 172.24L12.06 174.16C11.58 173.613 11.0467 173.207 10.46 172.94C9.87333 172.66 9.23333 172.52 8.54 172.52C7.88667 172.52 7.28667 172.627 6.74 172.84C6.19333 173.053 5.72 173.36 5.32 173.76C4.92 174.16 4.60667 174.633 4.38 175.18C4.16667 175.727 4.06 176.333 4.06 177C4.06 177.667 4.16667 178.273 4.38 178.82C4.60667 179.367 4.92 179.84 5.32 180.24C5.72 180.64 6.19333 180.947 6.74 181.16C7.28667 181.373 7.88667 181.48 8.54 181.48C9.23333 181.48 9.87333 181.347 10.46 181.08C11.0467 180.8 11.58 180.38 12.06 179.82L14.14 181.74C13.4733 182.553 12.6467 183.173 11.66 183.6C10.6867 184.027 9.58667 184.24 8.36 184.24ZM22.6494 184V181.9L22.4494 181.44V177.68C22.4494 177.013 22.2427 176.493 21.8294 176.12C21.4294 175.747 20.8094 175.56 19.9694 175.56C19.396 175.56 18.8294 175.653 18.2694 175.84C17.7227 176.013 17.256 176.253 16.8694 176.56L15.7494 174.38C16.336 173.967 17.0427 173.647 17.8694 173.42C18.696 173.193 19.536 173.08 20.3894 173.08C22.0294 173.08 23.3027 173.467 24.2094 174.24C25.116 175.013 25.5694 176.22 25.5694 177.86V184H22.6494ZM19.3694 184.16C18.5294 184.16 17.8094 184.02 17.2094 183.74C16.6094 183.447 16.1494 183.053 15.8294 182.56C15.5094 182.067 15.3494 181.513 15.3494 180.9C15.3494 180.26 15.5027 179.7 15.8094 179.22C16.1294 178.74 16.6294 178.367 17.3094 178.1C17.9894 177.82 18.876 177.68 19.9694 177.68H22.8294V179.5H20.3094C19.576 179.5 19.0694 179.62 18.7894 179.86C18.5227 180.1 18.3894 180.4 18.3894 180.76C18.3894 181.16 18.5427 181.48 18.8494 181.72C19.1694 181.947 19.6027 182.06 20.1494 182.06C20.6694 182.06 21.136 181.94 21.5494 181.7C21.9627 181.447 22.2627 181.08 22.4494 180.6L22.9294 182.04C22.7027 182.733 22.2894 183.26 21.6894 183.62C21.0894 183.98 20.316 184.16 19.3694 184.16ZM42.1731 173.08C43.0265 173.08 43.7798 173.253 44.4331 173.6C45.0998 173.933 45.6198 174.453 45.9931 175.16C46.3798 175.853 46.5731 176.747 46.5731 177.84V184H43.4531V178.32C43.4531 177.453 43.2731 176.813 42.9131 176.4C42.5531 175.987 42.0465 175.78 41.3931 175.78C40.9398 175.78 40.5331 175.887 40.1731 176.1C39.8131 176.3 39.5331 176.607 39.3331 177.02C39.1331 177.433 39.0331 177.96 39.0331 178.6V184H35.9131V178.32C35.9131 177.453 35.7331 176.813 35.3731 176.4C35.0265 175.987 34.5265 175.78 33.8731 175.78C33.4198 175.78 33.0131 175.887 32.6531 176.1C32.2931 176.3 32.0131 176.607 31.8131 177.02C31.6131 177.433 31.5131 177.96 31.5131 178.6V184H28.3931V173.24H31.3731V176.18L30.8131 175.32C31.1865 174.587 31.7131 174.033 32.3931 173.66C33.0865 173.273 33.8731 173.08 34.7531 173.08C35.7398 173.08 36.5998 173.333 37.3331 173.84C38.0798 174.333 38.5731 175.093 38.8131 176.12L37.7131 175.82C38.0731 174.98 38.6465 174.313 39.4331 173.82C40.2331 173.327 41.1465 173.08 42.1731 173.08ZM49.3697 184V173.24H52.4897V184H49.3697ZM50.9297 171.74C50.3564 171.74 49.8897 171.573 49.5297 171.24C49.1697 170.907 48.9897 170.493 48.9897 170C48.9897 169.507 49.1697 169.093 49.5297 168.76C49.8897 168.427 50.3564 168.26 50.9297 168.26C51.503 168.26 51.9697 168.42 52.3297 168.74C52.6897 169.047 52.8697 169.447 52.8697 169.94C52.8697 170.46 52.6897 170.893 52.3297 171.24C51.983 171.573 51.5164 171.74 50.9297 171.74ZM61.9253 173.08C62.7786 173.08 63.5386 173.253 64.2053 173.6C64.8853 173.933 65.4186 174.453 65.8053 175.16C66.192 175.853 66.3853 176.747 66.3853 177.84V184H63.2653V178.32C63.2653 177.453 63.072 176.813 62.6853 176.4C62.312 175.987 61.7786 175.78 61.0853 175.78C60.592 175.78 60.1453 175.887 59.7453 176.1C59.3586 176.3 59.052 176.613 58.8253 177.04C58.612 177.467 58.5053 178.013 58.5053 178.68V184H55.3853V173.24H58.3653V176.22L57.8053 175.32C58.192 174.6 58.7453 174.047 59.4653 173.66C60.1853 173.273 61.0053 173.08 61.9253 173.08ZM75.8134 184V181.9L75.6134 181.44V177.68C75.6134 177.013 75.4068 176.493 74.9934 176.12C74.5934 175.747 73.9734 175.56 73.1334 175.56C72.5601 175.56 71.9934 175.653 71.4334 175.84C70.8868 176.013 70.4201 176.253 70.0334 176.56L68.9134 174.38C69.5001 173.967 70.2068 173.647 71.0334 173.42C71.8601 173.193 72.7001 173.08 73.5534 173.08C75.1934 173.08 76.4668 173.467 77.3734 174.24C78.2801 175.013 78.7334 176.22 78.7334 177.86V184H75.8134ZM72.5334 184.16C71.6934 184.16 70.9734 184.02 70.3734 183.74C69.7734 183.447 69.3134 183.053 68.9934 182.56C68.6734 182.067 68.5134 181.513 68.5134 180.9C68.5134 180.26 68.6668 179.7 68.9734 179.22C69.2934 178.74 69.7934 178.367 70.4734 178.1C71.1534 177.82 72.0401 177.68 73.1334 177.68H75.9934V179.5H73.4734C72.7401 179.5 72.2334 179.62 71.9534 179.86C71.6868 180.1 71.5534 180.4 71.5534 180.76C71.5534 181.16 71.7068 181.48 72.0134 181.72C72.3334 181.947 72.7668 182.06 73.3134 182.06C73.8334 182.06 74.3001 181.94 74.7134 181.7C75.1268 181.447 75.4268 181.08 75.6134 180.6L76.0934 182.04C75.8668 182.733 75.4534 183.26 74.8534 183.62C74.2534 183.98 73.4801 184.16 72.5334 184.16ZM92.0413 184.24C90.9213 184.24 89.8479 184.093 88.8213 183.8C87.7946 183.493 86.9679 183.1 86.3413 182.62L87.4413 180.18C88.0413 180.607 88.7479 180.96 89.5613 181.24C90.3879 181.507 91.2213 181.64 92.0613 181.64C92.7013 181.64 93.2146 181.58 93.6013 181.46C94.0013 181.327 94.2946 181.147 94.4813 180.92C94.6679 180.693 94.7613 180.433 94.7613 180.14C94.7613 179.767 94.6146 179.473 94.3213 179.26C94.0279 179.033 93.6413 178.853 93.1613 178.72C92.6813 178.573 92.1479 178.44 91.5613 178.32C90.9879 178.187 90.4079 178.027 89.8213 177.84C89.2479 177.653 88.7213 177.413 88.2413 177.12C87.7613 176.827 87.3679 176.44 87.0613 175.96C86.7679 175.48 86.6213 174.867 86.6213 174.12C86.6213 173.32 86.8346 172.593 87.2613 171.94C87.7013 171.273 88.3546 170.747 89.2213 170.36C90.1013 169.96 91.2013 169.76 92.5213 169.76C93.4013 169.76 94.2679 169.867 95.1213 170.08C95.9746 170.28 96.7279 170.587 97.3813 171L96.3813 173.46C95.7279 173.087 95.0746 172.813 94.4213 172.64C93.7679 172.453 93.1279 172.36 92.5013 172.36C91.8746 172.36 91.3613 172.433 90.9613 172.58C90.5613 172.727 90.2746 172.92 90.1013 173.16C89.9279 173.387 89.8413 173.653 89.8413 173.96C89.8413 174.32 89.9879 174.613 90.2813 174.84C90.5746 175.053 90.9613 175.227 91.4413 175.36C91.9213 175.493 92.4479 175.627 93.0213 175.76C93.6079 175.893 94.1879 176.047 94.7613 176.22C95.3479 176.393 95.8813 176.627 96.3613 176.92C96.8413 177.213 97.2279 177.6 97.5213 178.08C97.8279 178.56 97.9813 179.167 97.9813 179.9C97.9813 180.687 97.7613 181.407 97.3213 182.06C96.8813 182.713 96.2213 183.24 95.3413 183.64C94.4746 184.04 93.3746 184.24 92.0413 184.24ZM105.315 184.16C104.088 184.16 103.008 183.92 102.075 183.44C101.155 182.96 100.442 182.307 99.9352 181.48C99.4285 180.64 99.1752 179.687 99.1752 178.62C99.1752 177.54 99.4218 176.587 99.9152 175.76C100.422 174.92 101.108 174.267 101.975 173.8C102.842 173.32 103.822 173.08 104.915 173.08C105.968 173.08 106.915 173.307 107.755 173.76C108.608 174.2 109.282 174.84 109.775 175.68C110.268 176.507 110.515 177.5 110.515 178.66C110.515 178.78 110.508 178.92 110.495 179.08C110.482 179.227 110.468 179.367 110.455 179.5H101.715V177.68H108.815L107.615 178.22C107.615 177.66 107.502 177.173 107.275 176.76C107.048 176.347 106.735 176.027 106.335 175.8C105.935 175.56 105.468 175.44 104.935 175.44C104.402 175.44 103.928 175.56 103.515 175.8C103.115 176.027 102.802 176.353 102.575 176.78C102.348 177.193 102.235 177.687 102.235 178.26V178.74C102.235 179.327 102.362 179.847 102.615 180.3C102.882 180.74 103.248 181.08 103.715 181.32C104.195 181.547 104.755 181.66 105.395 181.66C105.968 181.66 106.468 181.573 106.895 181.4C107.335 181.227 107.735 180.967 108.095 180.62L109.755 182.42C109.262 182.98 108.642 183.413 107.895 183.72C107.148 184.013 106.288 184.16 105.315 184.16ZM117.652 188.04C116.639 188.04 115.659 187.913 114.712 187.66C113.779 187.42 112.999 187.053 112.372 186.56L113.612 184.32C114.066 184.693 114.639 184.987 115.332 185.2C116.039 185.427 116.732 185.54 117.412 185.54C118.519 185.54 119.319 185.293 119.812 184.8C120.319 184.307 120.572 183.573 120.572 182.6V180.98L120.772 178.28L120.732 175.56V173.24H123.692V182.2C123.692 184.2 123.172 185.673 122.132 186.62C121.092 187.567 119.599 188.04 117.652 188.04ZM117.172 183.48C116.172 183.48 115.266 183.267 114.452 182.84C113.652 182.4 113.006 181.793 112.512 181.02C112.032 180.233 111.792 179.32 111.792 178.28C111.792 177.227 112.032 176.313 112.512 175.54C113.006 174.753 113.652 174.147 114.452 173.72C115.266 173.293 116.172 173.08 117.172 173.08C118.079 173.08 118.879 173.267 119.572 173.64C120.266 174 120.806 174.567 121.192 175.34C121.579 176.1 121.772 177.08 121.772 178.28C121.772 179.467 121.579 180.447 121.192 181.22C120.806 181.98 120.266 182.547 119.572 182.92C118.879 183.293 118.079 183.48 117.172 183.48ZM117.792 180.92C118.339 180.92 118.826 180.813 119.252 180.6C119.679 180.373 120.012 180.06 120.252 179.66C120.492 179.26 120.612 178.8 120.612 178.28C120.612 177.747 120.492 177.287 120.252 176.9C120.012 176.5 119.679 176.193 119.252 175.98C118.826 175.753 118.339 175.64 117.792 175.64C117.246 175.64 116.759 175.753 116.332 175.98C115.906 176.193 115.566 176.5 115.312 176.9C115.072 177.287 114.952 177.747 114.952 178.28C114.952 178.8 115.072 179.26 115.312 179.66C115.566 180.06 115.906 180.373 116.332 180.6C116.759 180.813 117.246 180.92 117.792 180.92ZM131.136 184.16C130.243 184.16 129.443 183.987 128.736 183.64C128.043 183.293 127.503 182.767 127.116 182.06C126.73 181.34 126.536 180.427 126.536 179.32V173.24H129.656V178.86C129.656 179.753 129.843 180.413 130.216 180.84C130.603 181.253 131.143 181.46 131.836 181.46C132.316 181.46 132.743 181.36 133.116 181.16C133.49 180.947 133.783 180.627 133.996 180.2C134.21 179.76 134.316 179.213 134.316 178.56V173.24H137.436V184H134.476V181.04L135.016 181.9C134.656 182.647 134.123 183.213 133.416 183.6C132.723 183.973 131.963 184.16 131.136 184.16ZM140.327 184V173.24H143.307V176.28L142.887 175.4C143.207 174.64 143.72 174.067 144.427 173.68C145.133 173.28 145.993 173.08 147.007 173.08V175.96C146.873 175.947 146.753 175.94 146.647 175.94C146.54 175.927 146.427 175.92 146.307 175.92C145.453 175.92 144.76 176.167 144.227 176.66C143.707 177.14 143.447 177.893 143.447 178.92V184H140.327ZM153.904 184.16C152.757 184.16 151.737 183.92 150.844 183.44C149.964 182.96 149.264 182.307 148.744 181.48C148.237 180.64 147.984 179.687 147.984 178.62C147.984 177.54 148.237 176.587 148.744 175.76C149.264 174.92 149.964 174.267 150.844 173.8C151.737 173.32 152.757 173.08 153.904 173.08C155.037 173.08 156.05 173.32 156.944 173.8C157.837 174.267 158.537 174.913 159.044 175.74C159.55 176.567 159.804 177.527 159.804 178.62C159.804 179.687 159.55 180.64 159.044 181.48C158.537 182.307 157.837 182.96 156.944 183.44C156.05 183.92 155.037 184.16 153.904 184.16ZM153.904 181.6C154.424 181.6 154.89 181.48 155.304 181.24C155.717 181 156.044 180.66 156.284 180.22C156.524 179.767 156.644 179.233 156.644 178.62C156.644 177.993 156.524 177.46 156.284 177.02C156.044 176.58 155.717 176.24 155.304 176C154.89 175.76 154.424 175.64 153.904 175.64C153.384 175.64 152.917 175.76 152.504 176C152.09 176.24 151.757 176.58 151.504 177.02C151.264 177.46 151.144 177.993 151.144 178.62C151.144 179.233 151.264 179.767 151.504 180.22C151.757 180.66 152.09 181 152.504 181.24C152.917 181.48 153.384 181.6 153.904 181.6Z" fill="#FFE4F2"/>
</svg>
